<svg xmlns="http://www.w3.org/2000/svg" viewBox="0 0 80 80" class="w-10 h-10"><path fill-rule="evenodd" fill="#FFF" d="M39.999.8C17.904.8.8 17.904.8 40c0 22.96 17.104 40.8 39.199 40.8C62.95 80.8 80.8 62.96 80.8 40 80.8 17.904 62.95.8 39.999.8zM24.14 18.662h31.72c3.012 0 5.477 2.465 5.477 5.478v31.719c0 3.013-2.465 5.478-5.477 5.478H24.14c-3.013 0-5.478-2.465-5.478-5.478V24.14c0-3.013 2.465-5.478 5.478-5.478zm25.609 4.742a1.926 1.926 0 00-1.921 1.921v4.598c0 1.057.864 1.921 1.921 1.921h4.823a1.926 1.926 0 001.921-1.921v-4.598a1.926 1.926 0 00-1.921-1.921h-4.823zm6.765 13.305h-3.757c.356 1.161.548 3.271.548 3.662 0 7.098-5.939 12.851-12.905 12.851-7.686 0-13.624-5.753-13.624-12.851 0-.391.192-2.501.547-3.662h-3.919v18.026c0 .933.763 1.697 1.696 1.697h29.717c.933 0 1.697-.764 1.697-1.697V36.709zM40.4 31.603c-5.093 0-8.931 3.718-8.931 8.304s3.838 8.304 8.931 8.304c4.373 0 8.211-3.718 8.211-8.304s-3.838-8.304-8.211-8.304z"></path></svg>