<svg xmlns="http://www.w3.org/2000/svg" viewBox="0 0 48 48" class="w-6 h-6 inline-block cursor-pointer"><path fill-rule="evenodd" fill="#FFF" d="M39.374 36.219l-9.826-9.825c4.94-6.422 4.446-15.698-.888-21.571C24.827 1.584 20.655.6 16.428.6 12.201.6 8.29 1.584 4.79 4.823c-6.421 6.422-6.421 16.851 0 24.127 3.5 2.384 7.411 3.976 11.638 3.976 3.513 0 7.027-1.098 9.936-3.349l9.881 9.771c.439.439.988 1.252 1.592 1.252.549 0 1.153-.813 1.592-1.252.823-.824.823-1.378-.055-3.129zM16.483 28.48c-3.239 0-6.203-1.263-8.509-3.513-4.666-4.666-4.666-12.295 0-17.015a11.954 11.954 0 018.509-3.513c3.239 0 6.203 1.262 8.509 3.513 2.305 2.25 3.513 5.269 3.513 8.507 0 3.239-1.263 6.203-3.513 8.508-2.251 2.305-5.325 3.513-8.509 3.513z"></path></svg>