<svg xmlns="http://www.w3.org/2000/svg" viewBox="0 0 81 81" class="w-10 h-10"><path fill-rule="evenodd" fill="#FFF" d="M40.498 80.501C18.406 80.501.497 62.592.497 40.5.497 18.407 18.406.498 40.498.498c22.091 0 40.001 17.909 40.001 40.002 0 22.092-17.91 40.001-40.001 40.001zm25.918-53.022a6.774 6.774 0 00-4.783-4.783c-4.219-1.13-21.135-1.13-21.135-1.13s-16.917 0-21.135 1.13c-2.013.622-4.161 2.455-4.783 4.783-1.131 4.218-1.131 13.021-1.131 13.021s0 8.802 1.131 13.021c.622 2.327 2.77 4.16 4.783 4.782 4.218 1.13 21.135 1.13 21.135 1.13s16.916 0 21.135-1.13a6.774 6.774 0 004.783-4.782c1.13-4.219 1.13-13.021 1.13-13.021s0-8.803-1.13-13.021zM35.88 32.385L49.142 40.5 35.88 48.614V32.385z"></path></svg>